<?plantuml 1.2026.2?><svg xmlns="http://www.w3.org/2000/svg" xmlns:xlink="http://www.w3.org/1999/xlink" contentStyleType="text/css" data-diagram-type="DESCRIPTION" height="669px" preserveAspectRatio="none" style="width:1088px;height:669px;background:#FFFFFF;" version="1.1" viewBox="0 0 1088 669" width="1088px" zoomAndPan="magnify"><title>Liquorice Leaderboard &#8212; Component Architecture</title><defs/><g><g class="title" data-source-line="1"><text fill="#000000" font-family="sans-serif" font-size="14" font-weight="bold" lengthAdjust="spacing" textLength="361.252" x="356.4553" y="23.5352">Liquorice Leaderboard &#8212; Component Architecture</text></g><!--cluster React 18 SPA--><g class="cluster" data-qualified-name="React 18 SPA" data-source-line="8" id="ent0003"><path d="M8.5,166.4683 L103.3096,166.4683 A3.75,3.75 0 0 1 105.8096,168.9683 L112.8096,188.9566 L639.5,188.9566 A2.5,2.5 0 0 1 642,191.4566 L642,658.7683 A2.5,2.5 0 0 1 639.5,661.2683 L8.5,661.2683 A2.5,2.5 0 0 1 6,658.7683 L6,168.9683 A2.5,2.5 0 0 1 8.5,166.4683" fill="none" style="stroke:#000000;stroke-width:1.5;"/><line style="stroke:#000000;stroke-width:1.5;" x1="6" x2="112.8096" y1="188.9566" y2="188.9566"/><text fill="#000000" font-family="sans-serif" font-size="14" font-weight="bold" lengthAdjust="spacing" textLength="93.8096" x="10" y="182.0034">React 18 SPA</text></g><!--entity app--><g class="entity" data-qualified-name="React 18 SPA.app" data-source-line="9" id="ent0004"><rect fill="#F1F1F1" height="52.9766" rx="2.5" ry="2.5" style="stroke:#181818;stroke-width:0.5;" width="145.7061" x="169.15" y="201.4683"/><text fill="#000000" font-family="sans-serif" font-size="14" lengthAdjust="spacing" textLength="51.6934" x="179.15" y="225.0034">App.jsx</text><text fill="#000000" font-family="sans-serif" font-size="14" lengthAdjust="spacing" textLength="125.7061" x="179.15" y="241.4917">(composition root)</text></g><!--entity profile--><g class="entity" data-qualified-name="React 18 SPA.profile" data-source-line="10" id="ent0005"><rect fill="#F1F1F1" height="36.4883" rx="2.5" ry="2.5" style="stroke:#181818;stroke-width:0.5;" width="87.5186" x="22.24" y="339.6983"/><text fill="#000000" font-family="sans-serif" font-size="14" lengthAdjust="spacing" textLength="67.5186" x="32.24" y="363.2334">Profile.jsx</text></g><!--entity lb--><g class="entity" data-qualified-name="React 18 SPA.lb" data-source-line="11" id="ent0006"><rect fill="#F1F1F1" height="52.9766" rx="2.5" ry="2.5" style="stroke:#181818;stroke-width:0.5;" width="178.334" x="152.83" y="331.4483"/><text fill="#000000" font-family="sans-serif" font-size="14" lengthAdjust="spacing" textLength="109.4297" x="162.83" y="354.9834">Leaderboard.jsx</text><text fill="#000000" font-family="sans-serif" font-size="14" lengthAdjust="spacing" textLength="158.334" x="162.83" y="371.4717">(load-more pagination)</text></g><!--entity leader--><g class="entity" data-qualified-name="React 18 SPA.leader" data-source-line="12" id="ent0007"><rect fill="#F1F1F1" height="36.4883" rx="2.5" ry="2.5" style="stroke:#181818;stroke-width:0.5;" width="89.7471" x="197.13" y="469.6683"/><text fill="#000000" font-family="sans-serif" font-size="14" lengthAdjust="spacing" textLength="69.7471" x="207.13" y="493.2034">Leader.jsx</text></g><!--entity hook--><g class="entity" data-qualified-name="React 18 SPA.hook" data-source-line="13" id="ent0008"><rect fill="#F1F1F1" height="36.4883" rx="2.5" ry="2.5" style="stroke:#181818;stroke-width:0.5;" width="167.1436" x="426.43" y="339.6983"/><text fill="#000000" font-family="sans-serif" font-size="14" lengthAdjust="spacing" textLength="147.1436" x="436.43" y="363.2334">useLeaderboard hook</text></g><!--entity api--><g class="entity" data-qualified-name="React 18 SPA.api" data-source-line="14" id="ent0009"><rect fill="#F1F1F1" height="52.9766" rx="2.5" ry="2.5" style="stroke:#181818;stroke-width:0.5;" width="130.291" x="467.85" y="461.4283"/><text fill="#000000" font-family="sans-serif" font-size="14" lengthAdjust="spacing" textLength="110.291" x="477.85" y="484.9634">leaderboard-api</text><text fill="#000000" font-family="sans-serif" font-size="14" lengthAdjust="spacing" textLength="100.1602" x="477.85" y="501.4517">(fetch + mock)</text></g><!--entity fixture--><g class="entity" data-qualified-name="React 18 SPA.fixture" data-source-line="15" id="ent0010"><rect fill="#F1F1F1" height="36.4883" rx="2.5" ry="2.5" style="stroke:#181818;stroke-width:0.5;" width="181.8613" x="305.07" y="608.7783"/><text fill="#000000" font-family="sans-serif" font-size="14" lengthAdjust="spacing" textLength="161.8613" x="315.07" y="632.3134">LEADERBOARD_FIXTURE</text></g><!--entity User--><g class="entity" data-qualified-name="User" data-source-line="6" id="ent0002"><ellipse cx="242.0026" cy="51.4883" fill="#F1F1F1" rx="8" ry="8" style="stroke:#181818;stroke-width:0.5;"/><path d="M242.0026,59.4883 L242.0026,86.4883 M229.0026,67.4883 L255.0026,67.4883 M242.0026,86.4883 L229.0026,101.4883 M242.0026,86.4883 L255.0026,101.4883" fill="none" style="stroke:#181818;stroke-width:0.5;"/><text fill="#000000" font-family="sans-serif" font-size="14" lengthAdjust="spacing" textLength="30.3652" x="226.82" y="116.5234">User</text></g><!--entity backend--><g class="entity" data-qualified-name="backend" data-source-line="18" id="ent0011"><path d="M666.2419,605.0231 C668.8356,599.8402 674.1637,599.2676 677.5194,604.1711 C682.1777,598.9327 686.1222,598.5209 690.1156,604.8926 C693.1731,598.8296 697.1294,598.6562 701.526,603.4904 C705.617,597.935 709.4203,597.7018 713.17,603.8305 C716.1856,598.1792 722.3907,597.1116 725.9722,603.2141 C729.8587,597.913 735.006,598.838 738.0596,604.1616 C741.2679,598.4543 745.1467,597.6773 749.7388,602.648 C753.9654,597.5531 757.157,598.6367 760.3783,603.7009 C764.3881,596.7745 769.2332,596.9183 773.2083,603.7332 C776.9033,597.3023 780.6629,597.4517 784.9073,603.2057 C788.957,598.1517 793.2693,599.2291 795.7375,604.8155 C798.8763,599.6926 804.243,599.9883 806.8336,605.3933 C812.2493,608.7244 812.7066,613.2005 807.4163,617.0661 C813.367,619.5083 813.6563,623.3924 808.7572,627.2616 C815.5905,631.0249 815.4744,635.94 809.3199,640.2652 C814.9173,644.7214 814.1612,648.6774 808.0263,651.8201 C804.8041,657.8637 799.5452,657.1323 796.0942,652.0659 C793.0459,658.6826 788.4848,658.9501 783.9953,653.5125 C781.2813,658.1596 775.9514,659.1259 773.2081,653.5434 C770.93,660.999 764.445,660.943 760.3638,655.3133 C757.8814,660.4109 752.6272,661.4878 749.4854,655.9904 C745.4119,661.056 741.5301,661.0498 737.4382,656.0122 C733.5807,661.0411 728.9994,662.4241 725.2468,655.9014 C721.1351,661.2228 716.7298,659.4408 714.1784,654.2574 C711.7315,660.6174 705.8872,659.6127 702.6226,655.1288 C697.6505,661.0442 692.0057,660.143 689.7155,652.5636 C685.5983,656.8131 682.2733,656.228 678.9773,651.5732 C675.3531,657.3216 671.2043,656.1955 667.9233,651.2195 C662.1015,649.5699 660.1294,643.993 664.5782,639.4293 C657.5104,637.528 656.4023,632.9652 660.8595,627.4779 C657.155,622.5046 657.7298,616.6472 665.1533,615.747 C660.1618,612.1275 660.1796,607.5205 666.2419,605.0231" fill="#F1F1F1" style="stroke:#181818;stroke-width:0.5;"/><text fill="#000000" font-family="sans-serif" font-size="14" lengthAdjust="spacing" textLength="71.7637" x="672.75" y="624.0734">/api/users</text><text fill="#000000" font-family="sans-serif" font-size="14" lengthAdjust="spacing" textLength="126.4922" x="672.75" y="640.5617">backend (optional)</text></g><g class="entity" data-qualified-name="GMN20" data-source-line="30" id="ent0021"><path d="M848.83,591.3983 L848.83,662.6405 L1081.1625,662.6405 L1081.1625,601.3983 L1071.1625,591.3983 L848.83,591.3983" fill="#FEFFDD" style="stroke:#181818;stroke-width:0.5;"/><path d="M1071.1625,591.3983 L1071.1625,601.3983 L1081.1625,601.3983 L1071.1625,591.3983" fill="#FEFFDD" style="stroke:#181818;stroke-width:1;"/><text fill="#000000" font-family="sans-serif" font-size="13" lengthAdjust="spacing" textLength="136.0874" x="854.83" y="608.9666">Returns {ok, users} or</text><text fill="#000000" font-family="sans-serif" font-size="13" lengthAdjust="spacing" textLength="211.3325" x="854.83" y="624.2772">{ok:false, error:{status,message}}.</text><text fill="#000000" font-family="sans-serif" font-size="13" lengthAdjust="spacing" textLength="205.0801" x="854.83" y="639.5877">Hook surfaces loading + error +</text><text fill="#000000" font-family="sans-serif" font-size="13" lengthAdjust="spacing" textLength="106.7549" x="854.83" y="654.8983">retry to the view.</text></g><!--link User to app--><g class="link" data-entity-1="ent0002" data-entity-2="ent0004" data-link-type="dependency" data-source-line="20" id="lnk12"><path d="M242,119.8783 C242,145.5083 242,172.7483 242,195.3483" fill="none" id="User-to-app" style="stroke:#181818;stroke-width:1;"/><polygon fill="#181818" points="242,201.3483,246,192.3483,242,196.3483,238,192.3483,242,201.3483" style="stroke:#181818;stroke-width:1;"/></g><!--link app to profile--><g class="link" data-entity-1="ent0004" data-entity-2="ent0005" data-link-type="dependency" data-source-line="21" id="lnk13"><path d="M168.67,239.9283 C139.36,247.7983 107.53,261.2983 86,284.4483 C72.13,299.3683 68.227,317.0381 66.907,333.2481" fill="none" id="app-to-profile" style="stroke:#181818;stroke-width:1;"/><polygon fill="#181818" points="66.42,339.2283,71.1373,330.5826,66.8258,334.2448,63.1637,329.9333,66.42,339.2283" style="stroke:#181818;stroke-width:1;"/><text fill="#000000" font-family="sans-serif" font-size="13" lengthAdjust="spacing" textLength="143.6411" x="87" y="298.0166">passes user + position</text></g><!--link app to lb--><g class="link" data-entity-1="ent0004" data-entity-2="ent0006" data-link-type="dependency" data-source-line="22" id="lnk14"><path d="M240.31,254.9183 C239.78,264.2283 239.26,274.8083 239,284.4483 C238.58,299.9383 238.9092,311.2885 239.7192,325.1185" fill="none" id="app-to-lb" style="stroke:#181818;stroke-width:1;"/><polygon fill="#181818" points="240.07,331.1083,243.5369,321.8898,239.7777,326.1168,235.5506,322.3576,240.07,331.1083" style="stroke:#181818;stroke-width:1;"/><text fill="#000000" font-family="sans-serif" font-size="13" lengthAdjust="spacing" textLength="231.8735" x="240" y="298.0166">passes users, loading, error, onRetry</text></g><!--link lb to leader--><g class="link" data-entity-1="ent0006" data-entity-2="ent0007" data-link-type="dependency" data-source-line="23" id="lnk15"><path d="M242,384.8383 C242,409.9583 242,441.4083 242,463.2683" fill="none" id="lb-to-leader" style="stroke:#181818;stroke-width:1;"/><polygon fill="#181818" points="242,469.2683,246,460.2683,242,464.2683,238,460.2683,242,469.2683" style="stroke:#181818;stroke-width:1;"/><text fill="#000000" font-family="sans-serif" font-size="13" lengthAdjust="spacing" textLength="48.1787" x="243" y="427.9966">per row</text></g><!--link app to hook--><g class="link" data-entity-1="ent0004" data-entity-2="ent0008" data-link-type="dependency" data-source-line="24" id="lnk16"><path d="M315.2,230.1483 C365.38,234.5383 430.8,247.7083 476,284.4483 C493.04,298.2983 500.4775,316.8647 504.8375,333.4847" fill="none" id="app-to-hook" style="stroke:#181818;stroke-width:1;"/><polygon fill="#181818" points="506.36,339.2883,507.9453,329.5679,505.0913,334.4519,500.2072,331.5978,506.36,339.2883" style="stroke:#181818;stroke-width:1;"/><text fill="#000000" font-family="sans-serif" font-size="13" lengthAdjust="spacing" textLength="109.3384" x="491.14" y="298.0166">useLeaderboard()</text></g><!--link hook to api--><g class="link" data-entity-1="ent0008" data-entity-2="ent0009" data-link-type="dependency" data-source-line="25" id="lnk17"><path d="M513.15,376.4683 C517.09,398.3683 522.7995,430.1327 527.3195,455.3027" fill="none" id="hook-to-api" style="stroke:#181818;stroke-width:1;"/><polygon fill="#181818" points="528.38,461.2083,530.7263,451.643,527.4962,456.287,522.8522,453.057,528.38,461.2083" style="stroke:#181818;stroke-width:1;"/><text fill="#000000" font-family="sans-serif" font-size="13" lengthAdjust="spacing" textLength="119.0122" x="523.88" y="427.9966">fetchLeaderboard()</text></g><!--link api to backend--><g class="link" data-entity-1="ent0009" data-entity-2="ent0011" data-link-type="dependency" data-source-line="26" id="lnk18"><path d="M598.62,498.6983 C631.35,506.4383 669.68,520.1683 697,544.3983 C712.04,557.7483 719.8033,572.4867 725.7933,589.5567" fill="none" id="api-to-backend" style="stroke:#181818;stroke-width:1;"/><polygon fill="#181818" points="727.78,595.2183,728.5743,585.4015,726.1244,590.5003,721.0256,588.0504,727.78,595.2183" style="stroke:#181818;stroke-width:1;"/><text fill="#000000" font-family="sans-serif" font-size="13" lengthAdjust="spacing" textLength="176.0396" x="712.26" y="557.9666">VITE_API_BASE !== mock://</text></g><!--link api to fixture--><g class="link" data-entity-1="ent0009" data-entity-2="ent0010" data-link-type="dependency" data-source-line="27" id="lnk19"><path d="M497.23,514.8983 C485.85,523.7683 473.51,534.0783 463,544.3983 C442.21,564.8383 424.9843,586.5665 412.1943,603.7365" fill="none" id="api-to-fixture" style="stroke:#181818;stroke-width:1;"/><polygon fill="#181818" points="408.61,608.5483,417.1943,603.7202,411.5969,604.5385,410.7786,598.9411,408.61,608.5483" style="stroke:#181818;stroke-width:1;"/><text fill="#000000" font-family="sans-serif" font-size="13" lengthAdjust="spacing" textLength="228.5664" x="464" y="557.9666">VITE_API_BASE == mock:// (default)</text></g><!--link api to GMN20--><g class="link" data-entity-1="ent0009" data-entity-2="ent0021" data-link-type="association" data-source-line="30" id="lnk22"><path d="M598.46,493.3283 C689.06,500.3583 847.17,516.2883 897,544.3983 C916.44,555.3683 932.69,574.2083 944.43,591.0183" fill="none" id="api-GMN20" style="stroke:#181818;stroke-width:1;stroke-dasharray:7,7;"/></g><?plantuml-src PPBTQXin48NlzHHJNzbaRTExOaXXqxZKKAYnar9eYf5tPstLMeqgQUi4OyX3z0dx91t9wpzwiOiqSsOqvvE22XhXi_hLa5C5hr2Mw9OaNGb_N__01wej6JG1SbUiLS0YD0w5y1jbh7IoXkAec8SNRkLO8SrAuuN4hsL9MsLMK4djkLeMWHmyUdH2M5biv0gXCqCEmzjtC9_c7TW9WE-vjOEV_ld9TDCfNWL51XnHwFq0wK5Q6sLJHvNI6AKfR0_xcBhmqtRI9Cj-JGx1ofKoChOyTDFBSyMfbqxRc6WyNj9P4ssI8YvYNf-JVMaL7rLXADPm0pKLc-F0Afqnpk_7ixil-Un-yN7oxU5nDaxfIZqdl7iX2arD2PqXLmpvPEUVp999eIcXIpOEBNMl4ulQi12H9_JxxnCM_jAwPG4ZjkizUeZDUAOZpPDGBwyrFeE8Ycyj0tIEN0PaPXZSYs1fgaY6OnN_7MrFhI8H3by3w_P4YXy6L9nFUAuLCH45HwiZ-3fv62_owMHnby_7yERsDj4S3OSdRGljF-rP2jqIAzdeq1F2K41OKWXK0rNjXR2jnXaFEzfa1_Dxe7Zf71YbDzio6EryaA7nMOtUywlTxmUi-XHz-SPLic1uBJLcd4hWXXKkSeD04DO8lnLk1oBQYyFy0m00?></g></svg>