<?plantuml 1.2026.2?><svg xmlns="http://www.w3.org/2000/svg" xmlns:xlink="http://www.w3.org/1999/xlink" contentStyleType="text/css" data-diagram-type="DESCRIPTION" height="320px" preserveAspectRatio="none" style="width:520px;height:320px;background:#FFFFFF;" version="1.1" viewBox="0 0 520 320" width="520px" zoomAndPan="magnify"><title>Deployment &#8212; static SPA + optional backend</title><defs/><g><g class="title" data-source-line="1"><text fill="#000000" font-family="sans-serif" font-size="14" font-weight="bold" lengthAdjust="spacing" textLength="325.9512" x="90.0994" y="23.5352">Deployment &#8212; static SPA + optional backend</text></g><!--cluster static--><g class="cluster" data-qualified-name="static" data-source-line="6" id="ent0003"><polygon fill="none" points="177.15,170.9783,187.15,160.9783,503.15,160.9783,503.15,293.4683,493.15,303.4683,177.15,303.4683,177.15,170.9783" style="stroke:#181818;stroke-width:1;"/><line style="stroke:#181818;stroke-width:1;" x1="493.15" x2="503.15" y1="170.9783" y2="160.9783"/><line style="stroke:#181818;stroke-width:1;" x1="177.15" x2="493.15" y1="170.9783" y2="170.9783"/><line style="stroke:#181818;stroke-width:1;" x1="493.15" x2="493.15" y1="170.9783" y2="303.4683"/><text fill="#000000" font-family="sans-serif" font-size="14" font-weight="bold" lengthAdjust="spacing" textLength="75.9199" x="298.19" y="187.5134">Static host</text><text fill="#000000" font-family="sans-serif" font-size="14" font-weight="bold" lengthAdjust="spacing" textLength="250.8652" x="210.7174" y="204.0017">(GitHub Pages / CF Pages / Vercel)</text></g><!--entity dist--><g class="entity" data-qualified-name="static.dist" data-source-line="7" id="ent0004"><path d="M232.65,224.9783 L273.65,224.9783 A3.75,3.75 0 0 1 276.15,227.4783 L283.15,245.9783 L297.65,245.9783 A2.5,2.5 0 0 1 300.15,248.4783 L300.15,276.9666 A2.5,2.5 0 0 1 297.65,279.4666 L232.65,279.4666 A2.5,2.5 0 0 1 230.15,276.9666 L230.15,227.4783 A2.5,2.5 0 0 1 232.65,224.9783" fill="#F1F1F1" style="stroke:#181818;stroke-width:0.5;"/><line style="stroke:#181818;stroke-width:0.5;" x1="230.15" x2="283.15" y1="245.9783" y2="245.9783"/><text fill="#000000" font-family="sans-serif" font-size="14" lengthAdjust="spacing" textLength="32.5732" x="240.15" y="266.5134">dist/</text></g><!--entity browser--><g class="entity" data-qualified-name="browser" data-source-line="5" id="ent0002"><polygon fill="#F1F1F1" points="166.23,53.4883,176.23,43.4883,260.063,43.4883,260.063,79.9766,250.063,89.9766,166.23,89.9766,166.23,53.4883" style="stroke:#181818;stroke-width:0.5;"/><line style="stroke:#181818;stroke-width:0.5;" x1="250.063" x2="260.063" y1="53.4883" y2="43.4883"/><line style="stroke:#181818;stroke-width:0.5;" x1="166.23" x2="250.063" y1="53.4883" y2="53.4883"/><line style="stroke:#181818;stroke-width:0.5;" x1="250.063" x2="250.063" y1="53.4883" y2="89.9766"/><text fill="#000000" font-family="sans-serif" font-size="14" lengthAdjust="spacing" textLength="53.833" x="181.23" y="77.0234">Browser</text></g><!--entity api--><g class="entity" data-qualified-name="api" data-source-line="9" id="ent0005"><polygon fill="#F1F1F1" points="16,230.7383,26,220.7383,138.2979,220.7383,138.2979,273.7148,128.2979,283.7148,16,283.7148,16,230.7383" style="stroke:#181818;stroke-width:0.5;"/><line style="stroke:#181818;stroke-width:0.5;" x1="128.2979" x2="138.2979" y1="230.7383" y2="220.7383"/><line style="stroke:#181818;stroke-width:0.5;" x1="16" x2="128.2979" y1="230.7383" y2="230.7383"/><line style="stroke:#181818;stroke-width:0.5;" x1="128.2979" x2="128.2979" y1="230.7383" y2="283.7148"/><text fill="#000000" font-family="sans-serif" font-size="14" lengthAdjust="spacing" textLength="82.2979" x="31" y="254.2734">Backend API</text><text fill="#000000" font-family="sans-serif" font-size="14" lengthAdjust="spacing" textLength="64.8662" x="31" y="270.7617">(optional)</text></g><!--link browser to static--><g class="link" data-entity-1="ent0002" data-entity-2="ent0003" data-link-type="dependency" data-source-line="11" id="lnk6"><path d="M260.35,84.0883 C278.17,92.3683 297.24,104.0983 310.15,119.9783 C319.5975,131.5958 326.7569,145.4439 332.1822,159.7211 C332.267,159.9442 330.2403,154.551 330.3242,154.7743" fill="none" id="browser-to-static" style="stroke:#181818;stroke-width:1;"/><polygon fill="#181818" points="332.4352,160.3906,333.0129,150.5587,330.676,155.7103,325.5244,153.3735,332.4352,160.3906" style="stroke:#181818;stroke-width:1;"/><text fill="#000000" font-family="sans-serif" font-size="13" lengthAdjust="spacing" textLength="114.7974" x="321.57" y="133.5466">load HTML/JS/CSS</text></g><!--link browser to api--><g class="link" data-entity-1="ent0002" data-entity-2="ent0005" data-link-type="dependency" data-source-line="12" id="lnk7"><path d="M165.78,71.3483 C133.01,76.5983 91.58,89.3283 70.15,119.9783 C49.68,149.2483 55.1234,186.0351 63.7834,214.6751" fill="none" id="browser-to-api" style="stroke:#181818;stroke-width:1;"/><polygon fill="#181818" points="65.52,220.4183,66.7439,210.6458,64.0728,215.6323,59.0863,212.9612,65.52,220.4183" style="stroke:#181818;stroke-width:1;"/><text fill="#000000" font-family="sans-serif" font-size="13" lengthAdjust="spacing" textLength="230.4644" x="71.15" y="133.5466">/api/users (when VITE_API_BASE set)</text></g><?plantuml-src LOx1QiCm44Jl-eh1fuGITEyXuAHfavA2GI6dGf2jJIoYICQhO4efz2FwXVsIgh5Tw6c7dTct4srqX0TgN7Yxa8_u_lm2Hnrj1LNak4DeeWrUEvIwEfCtGl3P-aQt-WAkjGcTzISSjMCImWT3o1Pjw9ZQ39fHzdfmL4-k0yTNFtcoSNqjKUWJCIIMZtzoJsr5RdeZ36tU1N0Cpb2Bp5YEycR-Al4n_kqR8YysYJuMxocwiK8CPJ2RpKViFLpG1klTorO-AxbKwbygdQM8J4DUquunwMhos6zsgqDwSrZaQWMcEFq1?></g></svg>